<svg width="32" height="32" viewBox="0 0 32 32" fill="none" xmlns="http://www.w3.org/2000/svg">
<path d="M12.0003 29.3334H20.0003C26.667 29.3334 29.3337 26.6667 29.3337 20.0001V12.0001C29.3337 5.33341 26.667 2.66675 20.0003 2.66675H12.0003C5.33366 2.66675 2.66699 5.33341 2.66699 12.0001V20.0001C2.66699 26.6667 5.33366 29.3334 12.0003 29.3334Z" stroke="#A6A7A8" stroke-width="1.5" stroke-linecap="round" stroke-linejoin="round"/>
<path d="M11.9997 13.3333C13.4724 13.3333 14.6663 12.1394 14.6663 10.6667C14.6663 9.19391 13.4724 8 11.9997 8C10.5269 8 9.33301 9.19391 9.33301 10.6667C9.33301 12.1394 10.5269 13.3333 11.9997 13.3333Z" stroke="#A6A7A8" stroke-width="1.5" stroke-linecap="round" stroke-linejoin="round"/>
<path d="M3.55957 25.2666L10.1329 20.8532C11.1862 20.1466 12.7062 20.2266 13.6529 21.0399L14.0929 21.4266C15.1329 22.3199 16.8129 22.3199 17.8529 21.4266L23.3996 16.6666C24.4396 15.7732 26.1196 15.7732 27.1596 16.6666L29.3329 18.5332" stroke="#A6A7A8" stroke-width="1.5" stroke-linecap="round" stroke-linejoin="round"/>
</svg>
