<svg width="24" height="20" viewBox="0 0 24 20" fill="none" xmlns="http://www.w3.org/2000/svg">
<path d="M24 3.41846V17.907C24 18.8487 23.268 19.6112 22.364 19.6112H18.545V9.95283L12 15.0674L5.455 9.95283V19.6122H1.636C1.42107 19.6122 1.20825 19.5681 1.0097 19.4824C0.811145 19.3967 0.63075 19.2711 0.47882 19.1127C0.32689 18.9543 0.206404 18.7664 0.124246 18.5595C0.0420884 18.3526 -0.000131068 18.1309 3.05652e-07 17.907V3.41846C3.05652e-07 1.31116 2.309 0.10804 3.927 1.37262L5.455 2.56741L12 7.67992L18.545 2.56533L20.073 1.37262C21.69 0.109082 24 1.31116 24 3.41846Z" fill="#A6A7A8"/>
</svg>
