<svg width="25" height="25" viewBox="0 0 25 25" fill="none" xmlns="http://www.w3.org/2000/svg">
<path d="M12.5 2.93413C15.8333 2.93413 16.25 2.93413 17.6042 3.03413C21.0417 3.13413 22.6042 4.73413 22.7083 7.93413C22.8125 9.23413 22.8125 9.53413 22.8125 12.7341C22.8125 15.9341 22.8125 16.3341 22.7083 17.5341C22.6042 20.7341 20.9375 22.3341 17.6042 22.4341C16.25 22.5341 15.9375 22.5341 12.5 22.5341C9.16667 22.5341 8.75 22.5341 7.5 22.4341C4.0625 22.3341 2.5 20.7341 2.39583 17.5341C2.29167 16.2341 2.29167 15.9341 2.29167 12.7341C2.29167 9.53413 2.29167 9.13413 2.39583 7.93413C2.5 4.73413 4.16667 3.13413 7.5 3.03413C8.75 2.93413 9.16667 2.93413 12.5 2.93413ZM12.5 0.734131C9.0625 0.734131 8.64583 0.734131 7.39583 0.834131C2.8125 1.03413 0.3125 3.43413 0.104167 7.83413C0 9.03413 0 9.43413 0 12.7341C0 16.0341 0 16.4341 0.104167 17.6341C0.3125 22.0341 2.8125 24.4341 7.39583 24.6341C8.64583 24.7341 9.0625 24.7341 12.5 24.7341C15.9375 24.7341 16.3542 24.7341 17.6042 24.6341C22.1875 24.4341 24.6875 22.0341 24.8958 17.6341C25 16.4341 25 16.0341 25 12.7341C25 9.43413 25 9.03413 24.8958 7.83413C24.6875 3.43413 22.1875 1.03413 17.6042 0.834131C16.3542 0.734131 15.9375 0.734131 12.5 0.734131ZM12.5 6.53413C8.95833 6.53413 6.04167 9.33413 6.04167 12.7341C6.04167 16.1341 8.95833 18.9341 12.5 18.9341C16.0417 18.9341 18.9583 16.1341 18.9583 12.7341C18.9583 9.33413 16.0417 6.53413 12.5 6.53413ZM12.5 16.7341C10.2083 16.7341 8.33333 14.9341 8.33333 12.7341C8.33333 10.5341 10.2083 8.73413 12.5 8.73413C14.7917 8.73413 16.6667 10.5341 16.6667 12.7341C16.6667 14.9341 14.7917 16.7341 12.5 16.7341ZM19.1667 4.93413C18.3333 4.93413 17.7083 5.53413 17.7083 6.33413C17.7083 7.13413 18.3333 7.73413 19.1667 7.73413C20 7.73413 20.625 7.13413 20.625 6.33413C20.625 5.53413 20 4.93413 19.1667 4.93413Z" fill="#A6A7A8"/>
</svg>
