<svg width="31" height="26" viewBox="0 0 31 26" fill="none" xmlns="http://www.w3.org/2000/svg">
<path d="M10.0418 25.2492C21.3594 24.9614 27.3139 15.5744 27.1104 7.57128C27.1037 7.30905 27.0916 7.04831 27.0727 6.78874C28.2524 5.90335 29.2697 4.80976 30.0625 3.57471C28.9724 4.08489 27.7943 4.43974 26.5533 4.61778C27.8045 3.83573 28.7499 2.62435 29.1741 1.19844C28.0027 1.92269 26.6988 2.46048 25.3045 2.76808C24.1514 1.61947 22.5336 0.923817 20.7643 0.968808C17.3659 1.05523 14.6792 3.83789 14.7642 7.18136C14.7763 7.6568 14.8423 8.11742 14.9586 8.55829C9.83881 8.43549 5.24297 6.14039 2.11538 2.55309C1.6091 3.46134 1.33095 4.50927 1.35915 5.61827C1.41258 7.71945 2.54615 9.54688 4.22568 10.5904C3.2156 10.5855 2.2604 10.3363 1.41965 9.90344C1.41892 9.92866 1.41957 9.95417 1.42025 9.9807C1.49485 12.9142 3.67841 15.3093 6.5076 15.7927C5.99436 15.9445 5.45255 16.0329 4.8911 16.0472C4.49474 16.0572 4.10831 16.0281 3.73166 15.9675C4.57601 18.3536 6.89225 20.0471 9.58681 20.028C7.52185 21.7063 4.89341 22.7417 2.01079 22.815C1.5145 22.8277 1.02397 22.8123 0.540918 22.7684C3.30758 24.4169 6.56634 25.3376 10.0418 25.2492Z" fill="#A6A7A8"/>
</svg>
