<svg width="32" height="32" viewBox="0 0 32 32" fill="none" xmlns="http://www.w3.org/2000/svg">
<path d="M21.3333 2.6665H10.6666C5.33329 2.6665 2.66663 5.33317 2.66663 10.6665V27.9998C2.66663 28.7332 3.26663 29.3332 3.99996 29.3332H21.3333C26.6666 29.3332 29.3333 26.6665 29.3333 21.3332V10.6665C29.3333 5.33317 26.6666 2.6665 21.3333 2.6665Z" stroke="#A6A7A8" stroke-width="1.5" stroke-linecap="round" stroke-linejoin="round"/>
<path d="M17.2133 10.4535L10.2933 17.3735C10.0267 17.6402 9.77335 18.1602 9.72002 18.5335L9.34668 21.1735C9.21335 22.1335 9.88001 22.8002 10.84 22.6669L13.48 22.2935C13.8533 22.2402 14.3734 21.9869 14.64 21.7202L21.56 14.8002C22.7467 13.6135 23.32 12.2269 21.56 10.4669C19.8 8.69353 18.4133 9.25354 17.2133 10.4535Z" stroke="#A6A7A8" stroke-width="1.5" stroke-miterlimit="10" stroke-linecap="round" stroke-linejoin="round"/>
<path d="M16.2267 11.4404C16.8134 13.5338 18.4534 15.1871 20.56 15.7738" stroke="#A6A7A8" stroke-width="1.5" stroke-miterlimit="10" stroke-linecap="round" stroke-linejoin="round"/>
</svg>
